<?xml version="1.0" encoding="utf-8"?>
<!-- Generator: Adobe Illustrator 23.0.1, SVG Export Plug-In . SVG Version: 6.00 Build 0)  -->
<svg version="1.1" id="Capa_1" xmlns="http://www.w3.org/2000/svg" xmlns:xlink="http://www.w3.org/1999/xlink" x="0px" y="0px"
	 viewBox="0 0 194.12 194.12" style="enable-background:new 0 0 194.12 194.12;" xml:space="preserve">
<style type="text/css">
	.st0{opacity:0.8;}
	.st1{fill:#E9D2DD;}
	.st2{fill:#EBD7E1;}
	.st3{fill:#A2C495;}
	.st4{fill:#FFF2BA;}
</style>
<g>
	<g class="st0">
		<path class="st1" d="M126.54,146.98c10.22-12.43,13.41-24.12,17.22-36.34c2.28-7.29,4.58-14.75,4.58-22.39
			c0-11.3-5.24-22.02-12.94-29.42s-17.66-11.68-27.88-13.65c-6.82-1.31-14.09-1.6-20.61,1.28C72.66,52.78,67.05,71.18,63.2,87.3
			c-1.53,6.41-3.06,12.83-4.59,19.24c-1.59,6.67-3.19,13.42-3.14,20.26c0.13,17.52,12.27,33.55,27.87,37.74
			C98.94,168.73,116.73,161.22,126.54,146.98"/>
		<g>
			<g>
				<g>
					<g>
						<polygon class="st2" points="124.6,145.64 124.4,145.68 124.47,146.21 						"/>
						<path class="st2" d="M123.7,148.21c0.1-0.02,0.16,0.08,0.26,0.06l0.08-1.86C123.17,146.59,124.29,148.08,123.7,148.21z"/>
						<path class="st2" d="M123.35,148.5c-0.58,0.3-0.36,0.8-0.33,1.01C122.87,149.11,123.85,148.74,123.35,148.5z"/>
						<path class="st2" d="M76.47,160.2c0.05,0.02,0.12,0.05,0.18,0.06C76.57,160.2,76.51,160.19,76.47,160.2z"/>
						<path class="st2" d="M64.74,152.5l-0.4,0.13c1.08,0.86,2.11,1.83,3.05,2.94c0.51,0.51,1.03,1.03,1.55,1.53
							c0.27,0.25,0.53,0.5,0.81,0.72c0.29,0.21,0.59,0.41,0.89,0.6l-0.24-0.01c0.71,0.55,1.38,1.15,2.14,1.63
							c0.75,0.48,1.49,0.95,2.24,1.4c0.79,0.39,1.57,0.77,2.35,1.15c0.78,0.37,1.62,0.62,2.42,0.93c3.27,1.1,6.68,1.65,10.18,1.76
							c-0.11,0.04-0.16,0.15-0.27,0.19c0.35-0.12,0.74-0.36,1.12-0.31c0.09,0.09-0.11,0.18-0.24,0.21c1.48,0.78,4.35-0.41,5.29-0.01
							c0.41-0.12,0.56-0.41,0.31-0.59c2.7-0.32,5.43-1.08,8.08-2c2.62-1.04,5.15-2.3,7.38-3.89c0.27-0.05,0.41,0.08,0.45,0.31
							c3.53-3.23,7.44-5.99,10.72-9.51c-0.09-0.32-0.54,0.17-0.45-0.37c-1.21,0.93-1.38,2.51-2.72,3.13l-0.06-0.32
							c-0.83,0.57,0.34,0.66-0.68,1.09c-0.46,0.1-0.15-0.32-0.31-0.21c-1.52,1.5-3.38,2.66-4.7,4.29c-0.74-0.23-1.93,1.26-2.92,1.11
							c-0.37,0.46-0.88,0.67-0.89,1.11c-3.39,1.59-6.92,2.93-10.62,3.77c-3.69,0.83-7.56,1.14-11.35,0.62
							c-0.46,0.08-0.93,0.13-1.41,0.13c-0.47-0.03-0.95-0.1-1.44-0.18c-0.48-0.09-0.97-0.19-1.46-0.32
							c-0.48-0.17-0.96-0.36-1.44-0.55c-0.48-0.2-0.97-0.37-1.44-0.6c-0.47-0.24-0.94-0.48-1.41-0.72
							c-0.97-0.42-1.88-0.97-2.87-1.39c-0.01-0.05,0.02-0.08,0.06-0.1c-0.69-0.18-1.46-0.57-2.24-1.02
							c-0.39-0.22-0.78-0.46-1.15-0.71c-0.36-0.27-0.69-0.56-1-0.84l-1.42-0.5c-3.61-3.62-6.74-7.67-9.21-12.14
							c-2.42-4.49-4.03-9.48-4.39-14.56c-0.49-5.77,0.6-11.19,1.75-16.53c1.2-5.36,2.41-10.8,3.02-16.64
							c0.1,0.04,0.18-0.04,0.16,0.27c0.56-3.32,1.66-6.21,2.17-9.35l0.11,0.04c0.46-3.92,1.49-7.87,2.68-11.72
							c1.2-3.85,2.55-7.58,3.65-11.21c1.96-4.13,4.38-8.43,7.7-12.08c3.32-3.61,7.55-6.58,12.26-7.92l0.04,0.22
							c3.69-1.23,7.63-1.19,11.38-0.67c3.77,0.53,7.45,1.51,11.21,2.37c3.73,1.34,7.63,2.51,11.4,4.19
							c3.75,1.66,7.39,3.85,10.13,6.86c1.46,2.08,3.6,3.95,5.54,6.09c1.94,2.11,3.66,4.47,4.17,6.85c1.32,4.72,2.43,9.19,3.03,13.82
							c0.64,4.61,0.6,9.41,0.03,14.26c-1.27,4.3-2.42,8.6-3.57,12.86c-1.15,4.25-2.38,8.5-4.46,12.34
							c-0.35,2.05-1.37,3.99-2.58,5.87c-1.2,1.89-2.54,3.72-3.55,5.73l0.32-0.01c-1.49,0.99-0.85,3.73-2.45,3.94l0.05-0.17
							c-1,0.36,0.12,2.49-0.8,2.51l0.18,0.29c-0.54,0.91-0.36-0.1-0.94,0.48c-0.15,0.27,0.39,0.42-0.13,0.84
							c-0.56-0.32-0.87,0.24-1.21,0.78c-0.35,0.53-0.72,1.04-1.3,0.62c0.35-0.44-0.98,0.35-0.43-0.83
							c-0.34,0.19-1.35,1.58-0.78,1.85c0.4,0.52,0.4,1.41,1.46,0.9l-0.23-0.47c0.59,0.01,0.35-0.07,0.71,0.05
							c0.91-1.07,1.59-0.78,2.42-1.44c-0.02,0-0.03,0-0.04-0.03c-0.04-0.9,0.79-1.48,1.19-1.88l0.34-0.03
							c0.64,0.03,0.02-1.95,0.56-1.06c1.44-2.53,3.15-5.37,4.59-8.27c-0.11-0.56,1.1-2.21,0.18-1.87c1.07-0.38,2.22-2.51,2.54-3.34
							c0.05,0.06,0.12,0.13,0.04,0.24c1.6-1.23-0.09-2.24,1.64-3.31c-0.72-0.54,1.28-2.67,0.6-3.87c0.25-0.12,0.44-0.13,0.56-0.01
							c0.96-2.73,2.21-5.68,2.96-7.98c-0.13-2.2,1.83-4.67,1.33-6.71c0.64-1.35,1.75-3.56,1.85-5.72l0.08,0.23
							c0.54-2.31,1.06-5.28,0.63-7c1.11-0.55,1.05-1.63,1.46-2.65c-0.16-0.83-0.15-2.06-0.22-3.41c-0.07-1.34-0.19-2.79-0.53-4
							c0.46-0.43-0.42-2,0.22-2.22c-1.13-3.37-2.38-6.98-3.87-10.57c-1.48-3.59-3.25-7.15-5.18-10.38l0.11,0.05
							c-0.91-0.52-2.23-0.84-3.24-1.21c-0.02-0.11,0.07-0.18,0.2-0.03c-0.48-0.45-0.82-1.01-1.18-1.55
							c-0.35-0.55-0.71-1.11-1.25-1.51c0.08-0.08,0.08-0.08,0.32-0.01c-1.11-0.63-1.57-2.15-3.07-2.66l0.05-0.19l-0.9-0.37
							c0.15-0.17,0.39-0.41,0.74-0.05c-4.51-3.63-9.9-6.18-15.46-7.87c-2.79-0.85-5.63-1.5-8.48-2.02
							c-2.85-0.52-5.74-0.91-8.66-1.09l0.44-0.19c-0.77,0.08-1.53,0.2-2.28,0.31c0.01-0.11,0.12-0.17,0.23-0.22
							c-2.93-0.4-5.94,0.56-8.68,1.24c-0.02-0.11,0.35-0.44-0.08-0.45c-0.95,0.58-1.81,0.68-2.54,0.83c-0.72,0.16-1.3,0.37-1.5,1.2
							c-0.11-0.01-0.3-0.24-0.15-0.43c-0.64,0.38-1.29,0.76-1.93,1.15c-0.62,0.42-1.21,0.88-1.82,1.31
							c-0.63,0.41-1.18,0.91-1.74,1.4c-0.55,0.5-1.16,0.94-1.66,1.49c-2.17,2.05-3.99,4.4-5.7,6.77c-0.8,2.37-2.02,4.58-3.06,6.92
							c-1.1,2.31-2.04,4.72-2.45,7.19l-0.21-0.1c-0.66,3.16-1.63,6.28-2.58,9.46c-0.94,3.18-1.89,6.39-2.57,9.62
							c-0.73,2.65-0.89,4.51-1.52,7.19l-0.3,0c0,4.77-3.25,9.24-3.13,14.25l-0.31-0.41c0.42,0.86-0.82,2.83,0.26,2.76l-0.47,0.78
							c0.37,1.74-0.03,3.17-0.45,4.71c-0.42,1.54-0.86,3.22-0.48,5.25l-0.24-0.27c0.14,1.08,0.31,2.32,0.14,3.12
							c-0.04-0.12-0.11-0.06-0.19-0.32c-0.19,0.85-0.29,1.73-0.25,2.62c0.08,0.89,0.24,1.78,0.44,2.67c0.48,1.76,1.09,3.5,1.64,5.18
							l-0.56-0.25c0.5,0.76,0.85,1.92,1.33,3.12c0.23,0.6,0.43,1.24,0.69,1.82c0.28,0.58,0.56,1.14,0.86,1.62l-0.25-0.03l0.77,0.9
							l-0.37,0.23c0.35,0.65,0.75,1.27,1.14,1.88l0.59,0.91l0.66,0.85l1.32,1.68C63.81,151.42,64.28,151.95,64.74,152.5z"/>
						<path class="st2" d="M90.34,165.38c-0.01,0-0.02-0.01-0.03-0.01C90.23,165.4,90.27,165.4,90.34,165.38z"/>
						<path class="st2" d="M130.46,145.18c-0.1,0.1-0.19,0.17-0.29,0.25C130.26,145.46,130.38,145.26,130.46,145.18z"/>
					</g>
				</g>
			</g>
		</g>
	</g>
	<g>
		<path class="st3" d="M98.86,74.23c0.15-0.58,0.36-1.17,0.53-1.78c0.84-2.93,0.9-5.93,0.45-8.94c-0.48-3.28-1.83-6.22-2.98-9.29
			c-0.28-0.75-0.7-2.35-1.27-3.63c-1.64,3.84-2.67,7.61-2.02,11.97C93.96,65.11,96.11,71.67,98.86,74.23z"/>
		<path class="st3" d="M109.82,82.87c-1.62,0.72-3.24,1.51-4.74,2.45c-0.5,0.32-7.68,6.73-6.96,7.07c0.66,0.31,0.34,0.63-0.22,0.82
			c1.46,0.45,2.5,0.7,4.3,0.31c2.54-0.55,4.15-1.61,5.74-3.6c2.03-2.54,3.71-5.6,5.23-8.52C111.97,81.77,110.67,82.5,109.82,82.87z"
			/>
		<path class="st3" d="M62.08,141.69c-1.08,0.88-6.19,6.3-5.97,8.65c1.6-0.17,3.42-0.69,4.88-0.9c2.67-0.38,5.61-1.03,8-2.35
			c1.89-1.04,3.76-2.77,5.26-4.31c1.35-1.39,2.03-2.81,2.78-4.38C71.93,136.71,66.18,138.35,62.08,141.69z"/>
		<path class="st3" d="M82.71,119.61c-0.22-1.5-2.45-9.25-4.75-10.27c-0.71,1.63-1.22,3.65-1.83,5.17c-1.1,2.77-2.1,5.94-2.18,8.93
			c-0.06,2.36,0.51,5.07,1.12,7.32c0.55,2.02,1.49,3.42,2.53,4.96C81.95,131.69,83.56,125.3,82.71,119.61z"/>
		<path class="st3" d="M124.64,100.44c-4.19,0.69-10.38,2.64-12.36,7.07c0,0.01-0.01,0.02-0.02,0.03c1.65,0.35,4.02,2,5.2,2.29
			c2.46,0.61,5.43,0.6,7.84-0.18c2.62-0.85,4.64-3.04,6.5-5c1.19-1.25,3.28-3.15,4.09-4.97
			C132.16,100.01,128.38,99.82,124.64,100.44z"/>
		<path class="st3" d="M78.95,136.49c-0.36-0.02-1.03,0.09-1.22,0.46c-0.03,0.05-0.05,0.1-0.07,0.15c-0.44-0.13-0.9-0.24-1.35-0.34
			c-0.01,0.06-0.02,0.13-0.03,0.19c-0.13,0.83,1.79,0.62,2.16,0.45c0.45-0.21,0.86-0.49,1.24-0.83c-0.14-0.04-0.3-0.07-0.49-0.08
			C79.11,136.5,79.03,136.5,78.95,136.49z"/>
		<path class="st4" d="M64.45,97.05c-0.42,0.42-2.7,0.47-2.31-0.49c1.15-2.83,2.27-5.38,1.92-8.5c0.01-2.66-1.72-3.3-5.17-1.93
			c-0.23,0.7-0.46,1.41-0.68,2.11c-0.18,0.8-0.33,1.7-0.27,2.53c0.64,0.76,1.14,1.63,1.39,2.58c0.23,0.89-2.02,0.55-2.36,0.32
			c-0.84-0.59-1.3-1.45-1.49-2.42c-0.36-0.28-0.8-0.54-1.33-0.85c-1.24-1.45-2.37-1.3-3.39,0.44c-1.34,0.31-1.92,0.97-1.74,1.98
			c-0.38,2.15,1.73,3.74,3.82,4.52c0.85-0.01,1.73,0.18,2.63,0.67c1.19,0.65-0.72,1.1-1.23,1.05c-0.73-0.07-1.5-0.21-2.27-0.41
			c-2.3,0.7-3.14,5.82-2.62,7.54c0.15,0.97,0.61,1.8,1.38,2.48c1.54-0.33,3.09-0.65,4.63-0.98c0.57-0.37,1.02-1.06,1.4-1.82
			c-0.29-1.73-0.21-3.6,1.58-4.09c0.89-0.24,2.86,0.66,1.27,1.09c-0.08,0.02-0.15,0.06-0.21,0.12c0.49,0.08,0.87,0.28,0.79,0.58
			c-0.02,0.06-0.03,0.12-0.05,0.18c0,0,0,0.01,0,0.01c-0.24,0.7-0.52,1.38-0.86,2.03c0.27,1.54,0.8,3.18,0.99,3.5
			c2.17,3.73,6.65,2.88,6.76-0.88c0.01-0.32-0.12-1.55-0.34-2.46c-0.79-0.16-1.56-0.56-2.26-1.25c-0.39-0.39,0.04-0.76,0.45-0.86
			c1.5-0.37,2.63-0.01,3.41,0.73c1.39-0.58,2.25-3.56,1.98-4.6C70.03,99.08,66.21,95.31,64.45,97.05z"/>
		<path class="st4" d="M138.27,66.75c-1.47,0.88-3.7,1.89-4.91,0.23c-0.06-0.11-0.06-0.22,0-0.34c0.73-1.53,2.53-1.98,4.44-1.7
			c1.11-1.44,1.64-3.52,1.38-4.93c-0.41-2.19-1.73-5.14-5.08-3.92c-2.02,0.73-2.69,2.92-3.06,4.76c-0.18,0.87-2.41,0.9-2.53,0
			c-0.34-2.51-2.68-5.5-5.31-2.92c-2.03,1.99-1.2,4.73,1.05,6.04c1.15,0.67-0.69,1.12-1.23,1.05c-4.31-0.53-5.62,5.42-3.79,8.44
			c3.25,5.35,5.89-0.52,8.73-0.98c0.06-0.16,0.12-0.32,0.18-0.47c0.22-0.5,1.13-0.48,1.56-0.44c0.08,0.01,0.16,0.01,0.24,0.02
			c0.97,0.08,0.99,0.5,0.62,0.82c-0.74,1.75-0.29,3.67,0.13,5.44c0.16,1.45,0.75,2.68,1.78,3.7c2.84,0.71,4.77-0.06,5.81-2.32
			c0.51-0.95,0.72-1.95,0.63-3c-0.48-0.3-0.86-0.58-1.16-0.83c-0.49,0-0.98-0.03-1.44-0.14c-1.38-0.31-2.82-1.25-1.14-2.33
			c0.77-0.5,2.28-0.2,3.55,0.32c0.44-0.09,0.95-0.17,1.56-0.22c0.95-0.94,1.35-2.01,1.19-3.22
			C140.73,67.94,139.66,66.93,138.27,66.75z"/>
		<path class="st4" d="M115.11,36.21c0.16-0.49,1.18-0.49,1.56-0.44c0.08,0.01,0.16,0.02,0.24,0.03c0.97,0.13,0.99,0.56,0.61,0.87
			c-0.02,0.08-0.04,0.17-0.05,0.25c0.14,0.12,0.2,0.28,0.1,0.47c-0.06,0.13-0.15,0.26-0.22,0.38c-0.13,1.97,0.59,4.47,1.61,5.71
			c2.01,2.45,6.63,1.12,7.8-1.68c0.61-1.46,1.33-5.83-2.4-5.21c-0.83,0.14-2.45-0.75-0.97-1.16c3.16-0.86,6.39-1.25,7.68-4.77
			c1.87-5.06-4.24-6.3-6.36-2.49c-0.38,0.69-2.74,0.64-2.44-0.34c0.62-1.99,1.28-4,0.45-6.03c-1.09-2.68-1.94-2.84-4.77-2.53
			c-2.99,0.32-3.42,0.49-3.6,3.34c-0.06,0.98,0.14,1.86,0.02,2.85c-0.11,0.96-2.06,0.7-2.48,0.16c-2.51-3.18-9.02-1.13-6.99,2.98
			c0.08,0.15,1.3,1.52,2.48,2.2c1.05-0.3,2.22-0.31,3.21-0.16c0.44,0.07,1.26,0.39,0.75,0.93c-0.72,0.76-1.92,0.84-3.1,0.69
			c-3.09,2.54,1.18,15.22,6.54,5.42C114.85,37.21,114.95,36.72,115.11,36.21z"/>
		<g>
			<path d="M114.86,37.85c-5.81,11.06-10.22,22.73-14.07,34.59c-3.76,11.56-6.71,23.12-7.98,35.24c-1.28,12.27-0.74,24.45-0.5,36.74
				c0.12,6.19,0.16,12.38,0.21,18.57c0.02,3.15,0.05,6.24-0.3,9.38c-0.27,2.43-0.78,4.57,0.13,6.89c0.29,0.75,2.06,0.56,2.44,0
				c0.11-0.16,0.22-0.32,0.32-0.48c0.49-0.72-1.95-1.06-2.44-0.34c-0.11,0.16-0.22,0.32-0.32,0.48c0.81,0,1.62,0,2.44,0
				c-1.16-2.97,0.09-6.5,0.26-9.55c0.15-2.65,0.01-5.34-0.01-7.99c-0.05-5.92-0.09-11.85-0.21-17.77
				c-0.25-12.03-0.74-23.94,0.51-35.94c1.28-12.27,4.31-23.98,8.14-35.68c3.79-11.6,8.13-23,13.82-33.82
				C117.72,37.36,115.25,37.09,114.86,37.85L114.86,37.85z"/>
		</g>
		<g>
			<path d="M94.37,122.93c8.16-5.54,15.04-12.36,20.45-20.62c3.06-4.67,6.42-9.2,9.09-14.11c2.62-4.82,4.38-9.98,5.83-15.26
				c0.27-0.97-2.22-1.11-2.44-0.34c-2.91,10.59-8.12,18.98-14.09,28.07c-5.67,8.65-12.46,15.79-21.03,21.61
				C91.31,122.88,93.71,123.38,94.37,122.93L94.37,122.93z"/>
		</g>
		<g>
			<path d="M95.32,146c-5.67-1.43-10.01-3.45-14.41-7.37c-3.79-3.37-6.92-7.26-10.06-11.22c-2.58-3.25-5.42-6.29-7.29-10.03
				c-1.99-4-4.43-8.19-3.43-12.77c0.17-0.76-2.33-0.92-2.53,0c-1.01,4.62,1.31,8.44,3.24,12.5c2.28,4.8,6.04,8.74,9.3,12.88
				c3.07,3.88,6.41,7.58,10.25,10.72c4.28,3.49,8.33,5.05,13.64,6.39C94.93,147.32,96.91,146.4,95.32,146L95.32,146z"/>
		</g>
		<g>
			<path d="M115.27,37.38c-6.25,12.46-11.24-6.11-5.22-5.18c-0.25-0.31-0.5-0.62-0.75-0.93c-1.13,1.19-4.14-2.08-4.26-2.33
				c-2.03-4.11,4.48-6.16,6.99-2.98c0.42,0.54,2.37,0.8,2.48-0.16c0.12-0.99-0.08-1.87-0.02-2.85c0.18-2.85,0.61-3.02,3.6-3.34
				c2.83-0.3,3.68-0.15,4.77,2.53c0.83,2.03,0.17,4.04-0.45,6.03c-0.31,0.98,2.05,1.03,2.44,0.34c2.12-3.82,8.23-2.57,6.36,2.49
				c-1.3,3.52-4.52,3.91-7.68,4.77c-1.47,0.4,0.14,1.3,0.97,1.16c3.73-0.63,3.02,3.74,2.4,5.21c-1.17,2.8-5.79,4.13-7.8,1.68
				c-1.25-1.52-2.06-4.93-1.41-6.94c-0.52,0.15-1.04,0.29-1.56,0.44c0.08,0.01,0.16,0.02,0.24,0.03c1.18,0.15,2.37-1,0.67-1.22
				c-0.08-0.01-0.16-0.02-0.24-0.03c-0.38-0.05-1.4-0.05-1.56,0.44c-2.13,6.55,4.35,12.31,10.6,9.58c2.72-1.19,4.97-4.99,3.89-7.99
				c-0.87-2.42-3.69-2.8-5.92-2.42c0.32,0.39,0.65,0.77,0.97,1.16c2.76-0.75,5.53-0.97,7.57-3.23c1.76-1.95,2.54-5.02,0.78-7.22
				c-2.79-3.48-8.81-1.73-10.74,1.75c0.81,0.11,1.62,0.23,2.44,0.34c1.04-3.34,1.52-5.95-0.88-8.87c-1.22-1.48-2.84-2.62-4.77-2.85
				c-1.83-0.22-3.89,0.27-5.28,1.53c-2.25,2.04-1.61,4.78-1.93,7.47c0.83-0.05,1.66-0.11,2.48-0.16c-1.94-2.46-3.57-3.87-6.97-3.54
				c-2.51,0.25-5.24,1.44-5.48,4.27c-0.24,2.78,1.51,4.86,3.98,5.67c1.48,0.49,4.23,1.2,5.48-0.13c0.51-0.54-0.31-0.86-0.75-0.93
				c-1.83-0.28-4.29-0.03-5.47,1.64c-1.46,2.08-0.74,6.71,0.98,8.48c3.44,3.54,9.68,0.18,11.47-3.37
				C118.13,36.88,115.66,36.61,115.27,37.38L115.27,37.38z"/>
		</g>
		<g>
			<path d="M128.31,72.78c-2.92,0.21-5.6,6.48-8.92,1.01c-1.83-3.02-0.52-8.97,3.79-8.44c0.54,0.07,2.39-0.38,1.23-1.05
				c-2.25-1.31-3.08-4.05-1.05-6.04c2.62-2.58,4.97,0.41,5.31,2.92c0.12,0.9,2.35,0.87,2.53,0c0.37-1.84,1.04-4.03,3.06-4.76
				c3.35-1.22,4.67,1.72,5.08,3.92c0.44,2.35-1.34,6.6-4.32,6.56c0.41,0.16,0.81,0.31,1.22,0.47c2.51-0.91,4.31,0.01,5.38,2.77
				c0.16,1.21-0.24,2.29-1.19,3.22c-3.81,0.34-4.27,1.41-1.38,3.2c0.09,1.05-0.12,2.05-0.63,3c-1.03,2.26-2.97,3.03-5.81,2.32
				c-1.03-1.02-1.62-2.25-1.78-3.7c-0.42-1.79-0.88-3.73-0.1-5.5c-0.52,0.15-1.04,0.29-1.56,0.44c0.08,0.01,0.16,0.01,0.24,0.02
				c1.17,0.1,2.38-1.07,0.67-1.22c-0.08-0.01-0.16-0.01-0.24-0.02c-0.43-0.04-1.34-0.06-1.56,0.44c-2.69,6.12,3.53,14.99,10.1,10.35
				c2.15-1.52,4.57-5.41,2.45-7.89c-0.86-1-4.23-2.38-5.53-1.54c-1.68,1.08-0.25,2.02,1.14,2.33c2.71,0.61,6.35-0.6,7.42-3.35
				c2.13-5.46-8.33-9.56-10.37-5.28c-0.06,0.11-0.06,0.22,0,0.34c1.26,1.73,3.62,0.57,5.08-0.33c3.12-1.92,4.14-4.83,2.8-8.3
				c-1.07-2.77-3.41-4.4-6.42-3.98c-3.7,0.52-5.61,3.07-6.31,6.49c0.84,0,1.68,0,2.53,0c-0.51-3.85-3.28-6.73-7.24-5.46
				c-4.69,1.51-5.57,7-1.33,9.47c0.41-0.35,0.82-0.7,1.23-1.05c-5.53-0.68-9.1,3.48-7.27,9.05c0.76,2.29,2.5,3.63,4.88,3.85
				c1.31,0.13,2.52-0.09,3.73-0.55c1.01-0.39,2.02-0.98,2.92-1.58c0.27-0.19,0.62-0.89,0.88-0.91
				C130.68,73.88,129.48,72.7,128.31,72.78L128.31,72.78z"/>
		</g>
		<g>
			<path d="M60.27,104.07c0.02-0.06,0.03-0.12,0.05-0.18c0.19-0.72-2.24-0.89-2.48-0.17c-0.44,1.31-1.15,3.5-2.34,4.28
				c-1.54,0.33-3.09,0.65-4.63,0.98c-0.77-0.68-1.23-1.5-1.38-2.48c-0.63-2.09,0.76-9.25,4.33-7.29c0.41-0.35,0.82-0.7,1.23-1.05
				c-2.38-0.24-6.41-2.13-5.89-5.03c-0.18-1.01,0.4-1.67,1.74-1.98c1.02-1.74,2.15-1.88,3.39-0.44c1.45,0.87,2.21,1.28,2.64,2.96
				c0.79-0.11,1.57-0.21,2.36-0.32c-1.61-1.12-1.31-3.16-0.95-4.79c0.23-0.7,0.46-1.41,0.68-2.11c3.46-1.38,5.18-0.73,5.17,1.93
				c0.35,3.12-0.77,5.67-1.92,8.5c-0.39,0.96,1.89,0.91,2.31,0.49c1.75-1.74,5.58,2.03,5.81,2.92c0.37,1.41-1.34,6.42-3.66,4.09
				c-0.15,0.29-0.3,0.58-0.45,0.86c0.5-0.12,0.88,2.96,0.87,3.49c-0.11,3.77-4.59,4.61-6.76,0.88c-0.36-0.62-1.96-6.06-0.65-6.43
				c1.58-0.44-0.39-1.34-1.27-1.09c-2.51,0.69-1.65,4.1-1.14,6.02c1.06,3.95,4.14,6.07,8.22,5.53c5.68-0.76,5.51-10.96-0.53-9.49
				c-0.41,0.1-0.85,0.47-0.45,0.86c3.57,3.59,9.32-0.64,8.25-5.17c-0.81-3.43-7.81-5.69-10.4-3.12c0.77,0.16,1.54,0.33,2.31,0.49
				c1.63-4.03,4.57-13.04-2.6-13.49c-2.4-0.15-4.72,0.73-5.74,2.95c-1.02,2.2-1.53,5.75,0.73,7.32c0.33,0.23,2.59,0.57,2.36-0.32
				c-1.13-4.35-7.15-7.09-11.03-4.27c-2.12,1.54-2.24,4.38-0.96,6.53c1.37,2.3,4.39,3.18,6.9,3.43c0.51,0.05,2.42-0.4,1.23-1.05
				c-5.53-3.02-10.74,4.45-8.3,9.45c1.1,2.25,3.24,3.34,5.68,3.12C56.81,110.56,59.13,107.46,60.27,104.07
				c-0.82-0.07-1.65-0.12-2.48-0.18c-0.02,0.06-0.03,0.12-0.05,0.18C57.55,104.8,60.03,104.99,60.27,104.07L60.27,104.07z"/>
		</g>
		<g>
			<path d="M77.12,134.05c-4.97-8.82,1.04-18.24,1.91-27.17c-0.83,0.05-1.65,0.11-2.48,0.16c3.34,4.89,4.95,9.93,4.61,15.83
				c-0.21,3.59-0.74,11.9-4.5,13.64c0.72,0.15,1.44,0.3,2.16,0.45c0.03-0.18,0.06-0.36,0.09-0.54c0.13-0.8-2.38-0.92-2.53,0
				c-0.03,0.18-0.06,0.36-0.09,0.54c-0.13,0.83,1.79,0.62,2.16,0.45c3.98-1.84,4.8-8.85,5.19-12.63c0.71-6.71-0.85-12.52-4.65-18.08
				c-0.39-0.57-2.39-0.77-2.48,0.16c-0.88,9.09-6.88,18.54-1.82,27.51C75.1,135.12,77.57,134.85,77.12,134.05L77.12,134.05z"/>
		</g>
		<g>
			<path d="M98.37,75.62c0.04,0.09,0.08,0.18,0.12,0.27c0.62-0.24,1.24-0.47,1.86-0.71c-3.42-1.07-6.32-9.62-6.76-12.62
				c-0.77-5.11,0.78-9.42,2.93-13.98c-0.7,0.09-1.41,0.18-2.11,0.28c1.19,0.72,2.02,4.15,2.48,5.37c1.14,3.07,2.49,6,2.98,9.29
				c0.44,3.01,0.38,6.01-0.45,8.94c-0.41,1.43-1.07,2.74-0.43,4.2c0.34,0.76,2.83,0.55,2.44-0.33c-0.8-1.82,1.15-6.15,1.23-8.18
				c0.11-2.76-0.26-5.53-1.03-8.18c-0.82-2.8-2.06-5.58-3.15-8.29c-0.55-1.37-0.95-2.91-2.27-3.7c-0.48-0.29-1.82-0.34-2.11,0.28
				c-2.51,5.34-4.22,10.54-2.58,16.47c1,3.63,3.61,10.32,7.58,11.55c0.42,0.13,2.22,0.12,1.86-0.71c-0.04-0.09-0.08-0.18-0.12-0.27
				C100.48,74.52,97.99,74.73,98.37,75.62L98.37,75.62z"/>
		</g>
		<g>
			<path d="M98.12,92.4c-0.72-0.34,6.46-6.76,6.96-7.07c1.49-0.95,3.12-1.74,4.74-2.45c1.2-0.53,3.31-1.79,4.75-1.66
				c-0.29-0.26-0.59-0.52-0.88-0.78c-1.64,3.2-3.49,6.68-5.74,9.5c-1.59,1.99-3.2,3.05-5.74,3.6c-2.11,0.46-3.17,0.04-5.1-0.56
				c-0.89-0.28-2.85,0.6-1.28,1.09c3.78,1.18,7.36,1.52,11.03-0.51c4.4-2.43,7.09-8.55,9.26-12.77c0.25-0.48-0.56-0.75-0.88-0.78
				c-3.85-0.34-8.42,2.33-11.59,4.19c-2.6,1.53-7.73,5.18-7.9,8.56c-0.01,0.2,0.22,0.38,0.37,0.45c0.07,0.03,0.14,0.07,0.21,0.1
				C97.05,93.63,99.38,93,98.12,92.4L98.12,92.4z"/>
		</g>
		<g>
			<path d="M112.28,107.51c1.98-4.43,8.16-6.37,12.36-7.07c4.37-0.72,8.8-0.33,13.14-0.98c-0.53-0.2-1.07-0.41-1.6-0.61
				c-0.42,2.05-3,4.35-4.37,5.8c-1.86,1.96-3.88,4.15-6.5,5c-2.41,0.78-5.38,0.79-7.84,0.18c-1.5-0.37-4.87-2.9-6.32-2.26
				c1.27-0.57-1.06-1.22-1.79-0.9c-0.1,0.05-0.2,0.09-0.31,0.14c-0.5,0.22-0.42,0.65,0,0.89c5.06,3.01,10.66,4.81,16.49,3.29
				c3.21-0.84,5-2.26,7.36-4.61c2-1.99,5.22-4.65,5.81-7.53c0.13-0.62-1.34-0.65-1.6-0.61c-6.01,0.9-11.96,0.22-17.93,1.93
				c-3.27,0.94-7.9,3.78-9.34,7C109.45,108.04,111.94,108.28,112.28,107.51L112.28,107.51z"/>
		</g>
		<g>
			<path d="M78.72,137.46c-5.37-2-11.6-1.13-16.52,1.92c-2.69,1.67-4.55,3.61-6.23,6.25c-0.66,1.03-3.13,4.27-2.14,5.57
				c0.61,0.8,1.86,0.4,2.67,0.3c3.67-0.45,7.55-1.03,11.08-2.2c2.82-0.94,4.88-2.32,7.09-4.26c2.82-2.46,3.85-4.48,5.5-7.74
				c-0.41,0.15-0.81,0.31-1.22,0.46c0.08,0,0.15,0.01,0.23,0.01c1.52,0.08,1.51-1.18,0-1.26c-0.08,0-0.15-0.01-0.23-0.01
				c-0.36-0.02-1.03,0.09-1.22,0.46c-1.1,2.16-1.72,4.03-3.48,5.83c-1.5,1.54-3.38,3.27-5.26,4.31c-2.39,1.32-5.33,1.97-8,2.35
				c-1.8,0.26-4.15,0.99-5.94,0.96c0.41,0.16,0.81,0.31,1.22,0.47c-1.27-1.95,4.65-8.23,5.81-9.18c4.21-3.42,10.17-5.08,15.36-3.14
				C78.32,138.88,80.26,138.03,78.72,137.46L78.72,137.46z"/>
		</g>
	</g>
</g>
</svg>
